<svg xmlns="http://www.w3.org/2000/svg" viewBox="0 0 220 240">
  <rect width="220" height="240" rx="36" fill="#0F172A"/>
  <polygon points="110,8 202,58 202,182 110,232 18,182 18,58" fill="white"/>
  <polygon points="110,24 188,66 188,174 110,216 32,174 32,66" fill="none" stroke="#1a1a1a" stroke-width="14" stroke-linejoin="miter"/>
  <rect x="26" y="44" width="28" height="152" fill="#1a1a1a"/>
  <rect x="34" y="44" width="12" height="152" fill="white"/>
  <rect x="166" y="44" width="28" height="152" fill="#1a1a1a"/>
  <rect x="174" y="44" width="12" height="152" fill="white"/>
  <rect x="54" y="44" width="140" height="30" fill="#1a1a1a"/>
  <rect x="54" y="52" width="126" height="14" fill="white"/>
  <rect x="168" y="52" width="26" height="14" fill="#1a1a1a"/>
  <rect x="54" y="74" width="28" height="46" fill="#1a1a1a"/>
  <rect x="62" y="74" width="12" height="46" fill="white"/>
  <polygon points="54,112 82,112 166,128 166,148 138,148 54,132" fill="#1a1a1a"/>
  <polygon points="62,112 82,112 158,128 158,148 138,148 62,132" fill="white"/>
  <rect x="138" y="120" width="28" height="46" fill="#1a1a1a"/>
  <rect x="146" y="120" width="12" height="46" fill="white"/>
  <rect x="26" y="166" width="140" height="30" fill="#1a1a1a"/>
  <rect x="40" y="166" width="126" height="14" fill="white"/>
  <rect x="26" y="166" width="26" height="14" fill="#1a1a1a"/>
  <rect x="54" y="106" width="46" height="28" fill="#1a1a1a"/>
  <rect x="62" y="114" width="30" height="12" fill="white"/>
  <rect x="120" y="106" width="46" height="28" fill="#1a1a1a"/>
  <rect x="128" y="114" width="30" height="12" fill="white"/>
  <polygon points="110,8 202,58 202,182 110,232 18,182 18,58" fill="none" stroke="#1a1a1a" stroke-width="16" stroke-linejoin="miter"/>
  <polygon points="110,8 202,58 202,182 110,232 18,182 18,58" fill="none" stroke="#2563EB" stroke-width="3" stroke-linejoin="miter"/>
</svg>
